<svg width="40" height="40" viewBox="0 0 40 40" fill="none" xmlns="http://www.w3.org/2000/svg">
<path d="M11.7227 15.9606C13.2125 15.5223 14.7572 15.2982 16.3102 15.295C21.5364 15.295 26.172 17.7375 29.0864 21.4925C29.1664 21.005 29.2183 20.5094 29.2183 20C29.2183 14.9088 25.0908 10.7812 19.9995 10.7812C16.3589 10.7812 13.2208 12.8963 11.7227 15.9606" fill="#0093FF"/>
<path d="M16.3106 17.8086C14.36 17.8086 12.5156 18.2311 10.8444 18.9586C10.8037 19.3044 10.7826 19.6523 10.7812 20.0005C10.7812 25.0917 14.9088 29.2192 20 29.2192C23.4444 29.2192 26.4425 27.3267 28.025 24.528C25.7531 20.5311 21.3594 17.8086 16.3106 17.8086ZM13.8544 23.0736C13.6914 23.0736 13.5352 23.0089 13.4199 22.8936C13.3047 22.7784 13.24 22.6222 13.24 22.4592C13.24 22.2963 13.3047 22.14 13.4199 22.0248C13.5352 21.9096 13.6914 21.8448 13.8544 21.8448C14.0173 21.8448 14.1736 21.9096 14.2888 22.0248C14.404 22.14 14.4687 22.2963 14.4687 22.4592C14.4687 22.6222 14.404 22.7784 14.2888 22.8936C14.1736 23.0089 14.0173 23.0736 13.8544 23.0736ZM13.8544 20.6148C13.7738 20.6149 13.694 20.5991 13.6195 20.5684C13.545 20.5376 13.4773 20.4925 13.4202 20.4355C13.3632 20.3786 13.3179 20.311 13.287 20.2365C13.256 20.1621 13.2401 20.0823 13.24 20.0017C13.2399 19.9211 13.2557 19.8413 13.2865 19.7668C13.3172 19.6923 13.3624 19.6246 13.4193 19.5675C13.4763 19.5105 13.5439 19.4652 13.6183 19.4343C13.6927 19.4034 13.7725 19.3874 13.8531 19.3873C14.0159 19.3872 14.1721 19.4517 14.2873 19.5667C14.4025 19.6816 14.4673 19.8377 14.4675 20.0005C14.4677 20.1632 14.4032 20.3194 14.2882 20.4346C14.1732 20.5499 14.0172 20.6147 13.8544 20.6148ZM16.3125 24.303C16.1496 24.303 15.9933 24.2382 15.8781 24.123C15.7629 24.0078 15.6981 23.8515 15.6981 23.6886C15.6981 23.5257 15.7629 23.3694 15.8781 23.2542C15.9933 23.1389 16.1496 23.0742 16.3125 23.0742C16.4754 23.0742 16.6317 23.1389 16.7469 23.2542C16.8621 23.3694 16.9269 23.5257 16.9269 23.6886C16.9269 23.8515 16.8621 24.0078 16.7469 24.123C16.6317 24.2382 16.4754 24.303 16.3125 24.303ZM20 26.7605C19.9194 26.7606 19.8396 26.7448 19.7651 26.714C19.6906 26.6832 19.6229 26.6381 19.5658 26.5811C19.5088 26.5242 19.4635 26.4566 19.4326 26.3822C19.4017 26.3077 19.3857 26.2279 19.3856 26.1473C19.3855 26.0667 19.4013 25.9869 19.4321 25.9124C19.4629 25.8379 19.508 25.7702 19.5649 25.7132C19.6219 25.6561 19.6895 25.6108 19.7639 25.5799C19.8384 25.549 19.9182 25.5331 19.9987 25.533C20.1615 25.5328 20.3177 25.5973 20.4329 25.7123C20.5481 25.8273 20.613 25.9833 20.6131 26.1461C20.6133 26.3089 20.5488 26.465 20.4338 26.5803C20.3188 26.6955 20.1628 26.7603 20 26.7605ZM20 24.303C19.8371 24.303 19.6808 24.2382 19.5656 24.123C19.4504 24.0078 19.3856 23.8515 19.3856 23.6886C19.3856 23.5257 19.4504 23.3694 19.5656 23.2542C19.6808 23.1389 19.8371 23.0742 20 23.0742C20.1629 23.0742 20.3192 23.1389 20.4344 23.2542C20.5496 23.3694 20.6144 23.5257 20.6144 23.6886C20.6144 23.8515 20.5496 24.0078 20.4344 24.123C20.3192 24.2382 20.1629 24.303 20 24.303ZM22.4587 25.5317C22.2959 25.5317 22.1397 25.467 22.0245 25.3519C21.9094 25.2367 21.8447 25.0805 21.8447 24.9177C21.8447 24.7548 21.9094 24.5986 22.0245 24.4834C22.1397 24.3683 22.2959 24.3036 22.4587 24.3036C22.6216 24.3036 22.7778 24.3683 22.893 24.4834C23.0081 24.5986 23.0728 24.7548 23.0728 24.9177C23.0728 25.0805 23.0081 25.2367 22.893 25.3519C22.7778 25.467 22.6216 25.5317 22.4587 25.5317ZM24.9169 26.7605C24.8362 26.7606 24.7564 26.7448 24.6818 26.7141C24.6073 26.6833 24.5395 26.6382 24.4824 26.5813C24.4253 26.5243 24.3799 26.4567 24.349 26.3823C24.318 26.3078 24.302 26.228 24.3019 26.1473C24.3018 26.0667 24.3175 25.9868 24.3483 25.9123C24.379 25.8377 24.4241 25.77 24.4811 25.7129C24.538 25.6558 24.6056 25.6104 24.6801 25.5794C24.7545 25.5485 24.8344 25.5325 24.915 25.5323C25.0779 25.5321 25.2341 25.5966 25.3495 25.7115C25.4648 25.8265 25.5298 25.9826 25.53 26.1455C25.5302 26.3083 25.4658 26.4646 25.3508 26.58C25.2358 26.6953 25.0797 26.7602 24.9169 26.7605ZM24.9169 24.303C24.7539 24.3031 24.5976 24.2386 24.4823 24.1235C24.3669 24.0084 24.302 23.8522 24.3019 23.6892C24.3017 23.5263 24.3663 23.3699 24.4814 23.2546C24.5965 23.1393 24.7527 23.0744 24.9156 23.0742C24.9963 23.0741 25.0762 23.0899 25.1508 23.1207C25.2254 23.1515 25.2931 23.1967 25.3502 23.2537C25.4073 23.3107 25.4527 23.3784 25.4836 23.4529C25.5146 23.5274 25.5305 23.6073 25.5306 23.688C25.5307 23.7687 25.5149 23.8486 25.4841 23.9231C25.4533 23.9977 25.4081 24.0655 25.3511 24.1226C25.2941 24.1797 25.2264 24.225 25.1519 24.256C25.0774 24.2869 24.9976 24.3029 24.9169 24.303Z" fill="#0093FF"/>
<path d="M20 1.25C9.645 1.25 1.25 9.645 1.25 20C1.25 30.355 9.645 38.75 20 38.75C30.355 38.75 38.75 30.355 38.75 20C38.75 9.645 30.355 1.25 20 1.25ZM37.5 20C37.4995 21.2598 37.3628 22.5158 37.0925 23.7462L20 32.2919L2.90812 23.7462C2.64312 22.5387 2.5 21.2863 2.5 20C2.5 18.7137 2.64312 17.4613 2.90812 16.2538L20 7.70813L37.0925 16.2538C37.3628 17.4842 37.4995 18.7402 37.5 20V20Z" fill="#63B900"/>
</svg>
