<svg width="60" height="60" viewBox="0 0 60 60" fill="none" xmlns="http://www.w3.org/2000/svg">
<g clip-path="url(#clip0_158_410)">
<path d="M26.6667 3.33333C26.6667 3.33333 26.6667 0 30 0C33.3333 0 33.3333 3.33333 33.3333 3.33333V6.66667C33.3333 6.66667 33.3333 10 30 10C26.6667 10 26.6667 6.66667 26.6667 6.66667V3.33333ZM56.6667 26.6667C56.6667 26.6667 60 26.6667 60 30C60 33.3333 56.6667 33.3333 56.6667 33.3333H53.3333C53.3333 33.3333 50 33.3333 50 30C50 26.6667 53.3333 26.6667 53.3333 26.6667H56.6667ZM6.66667 26.6667C6.66667 26.6667 10 26.6667 10 30C10 33.3333 6.66667 33.3333 6.66667 33.3333H3.33333C3.33333 33.3333 0 33.3333 0 30C0 26.6667 3.33333 26.6667 3.33333 26.6667H6.66667ZM15.2017 12.155C15.2017 12.155 17.5583 14.5117 15.2017 16.8683C12.845 19.225 10.4883 16.8683 10.4883 16.8683L8.13 14.5133C8.13 14.5133 5.77333 12.1567 8.13 9.79833C10.4883 7.44167 12.845 9.79833 12.845 9.79833L15.2017 12.155ZM50.2017 47.155C50.2017 47.155 52.5583 49.5117 50.2017 51.8683C47.845 54.225 45.4883 51.8683 45.4883 51.8683L43.1317 49.5117C43.1317 49.5117 40.775 47.155 43.1317 44.7983C45.4883 42.4417 47.845 44.7983 47.845 44.7983L50.2017 47.155ZM49.5133 16.8683C49.5133 16.8683 47.1567 19.225 44.8 16.8683C42.4433 14.5117 44.8 12.155 44.8 12.155L47.1567 9.79833C47.1567 9.79833 49.5133 7.44167 51.87 9.79833C54.2267 12.155 51.87 14.5117 51.87 14.5117L49.5133 16.8683ZM14.5133 51.8683C14.5133 51.8683 12.1567 54.225 9.8 51.8683C7.44333 49.5117 9.8 47.155 9.8 47.155L12.1567 44.7983C12.1567 44.7983 14.5133 42.4417 16.87 44.7983C19.2267 47.155 16.87 49.5117 16.87 49.5117L14.5133 51.8683ZM26.6667 53.3333C26.6667 53.3333 26.6667 50 30 50C33.3333 50 33.3333 53.3333 33.3333 53.3333V56.6667C33.3333 56.6667 33.3333 60 30 60C26.6667 60 26.6667 56.6667 26.6667 56.6667V53.3333Z" fill="#FFAC33"/>
<path d="M29.9997 46.6663C39.2044 46.6663 46.6663 39.2044 46.6663 29.9997C46.6663 20.7949 39.2044 13.333 29.9997 13.333C20.7949 13.333 13.333 20.7949 13.333 29.9997C13.333 39.2044 20.7949 46.6663 29.9997 46.6663Z" fill="#FFAC33"/>
</g>
<defs>
<clipPath id="clip0_158_410">
<rect width="60" height="60" fill="white"/>
</clipPath>
</defs>
</svg>
