<svg width="60" height="60" viewBox="0 0 60 60" fill="none" xmlns="http://www.w3.org/2000/svg">
<path fill-rule="evenodd" clip-rule="evenodd" d="M24.4997 2.72441C24.5002 2.15674 24.3232 1.60312 23.9935 1.14101C23.6638 0.678905 23.1979 0.331447 22.6609 0.14726C22.124 -0.0369263 21.5428 -0.0486244 20.9989 0.113803C20.455 0.276231 19.9754 0.604656 19.6274 1.05312L0.573505 25.551C0.201806 26.0288 0 26.6169 0 27.2222C0 27.8276 0.201806 28.4157 0.573505 28.8935L19.6274 53.3914C19.9754 53.8398 20.455 54.1683 20.9989 54.3307C21.5428 54.4931 22.124 54.4814 22.6609 54.2972C23.1979 54.1131 23.6638 53.7656 23.9935 53.3035C24.3232 52.8414 24.5002 52.2878 24.4997 51.7201V40.8594C39.1413 41.1642 46.1749 43.9434 49.708 46.9648C53.0669 49.8365 53.6821 53.2145 54.3218 56.753L54.4878 57.6649C54.6099 58.3174 54.9663 58.9027 55.4899 59.3108C56.0134 59.7189 56.6681 59.9217 57.3306 59.8809C57.9932 59.8401 58.618 59.5585 59.0875 59.0893C59.557 58.62 59.8389 57.9954 59.88 57.3328C60.3455 49.8528 59.646 39.0139 54.3626 29.947C49.2344 21.1468 39.9987 14.3799 24.4997 13.6722V2.72441Z" fill="#001D66"/>
</svg>
