<svg width="55" height="54" viewBox="0 0 55 54" fill="none" xmlns="http://www.w3.org/2000/svg">
<path d="M52 27C52 13.1925 40.8075 2 27 2C13.1925 2 2 13.1925 2 27C2 40.8075 13.1925 52 27 52" stroke="#0047FF" stroke-width="4" stroke-linecap="round" stroke-linejoin="round"/>
<path d="M29.5 2.125C29.5 2.125 37 12 37 27M24.5 51.875C24.5 51.875 17 42 17 27C17 12 24.5 2.125 24.5 2.125M3.57501 35.75H27M3.57501 18.25H50.425" stroke="#0047FF" stroke-width="4" stroke-linecap="round" stroke-linejoin="round"/>
<path d="M51.6975 41.7926C52.9325 42.5526 52.855 44.4001 51.585 44.5451L45.1675 45.2726L42.29 51.0526C41.72 52.2001 39.9575 51.6376 39.665 50.2176L36.5275 34.9276C36.28 33.7276 37.36 32.9726 38.4025 33.6151L51.6975 41.7926V41.7926Z" stroke="#0047FF" stroke-width="4"/>
</svg>
