<svg width="60" height="60" viewBox="0 0 60 60" fill="none" xmlns="http://www.w3.org/2000/svg">
<path d="M50.2333 5.00016C50.2333 4.55814 50.0577 4.13421 49.7452 3.82165C49.4326 3.50909 49.0087 3.3335 48.5667 3.3335H11.9C11.458 3.3335 11.0341 3.50909 10.7215 3.82165C10.4089 4.13421 10.2333 4.55814 10.2333 5.00016V6.66683H50.2333V5.00016Z" fill="#0047FF"/>
<path d="M53.5333 11.6667C53.5333 11.2246 53.3577 10.8007 53.0452 10.4882C52.7326 10.1756 52.3087 10 51.8666 10H8.5333C8.09128 10 7.66735 10.1756 7.35479 10.4882C7.04223 10.8007 6.86664 11.2246 6.86664 11.6667V13.3333H53.5333V11.6667Z" fill="#0047FF"/>
<path d="M53.5333 16.6665H6.46665C5.63563 16.6665 4.83866 16.9966 4.25104 17.5842C3.66343 18.1718 3.33331 18.9688 3.33331 19.7998V50.1998C3.33331 51.0309 3.66343 51.8278 4.25104 52.4154C4.83866 53.0031 5.63563 53.3332 6.46665 53.3332H53.5333C54.3643 53.3332 55.1613 53.0031 55.7489 52.4154C56.3365 51.8278 56.6666 51.0309 56.6666 50.1998V19.7998C56.6666 18.9688 56.3365 18.1718 55.7489 17.5842C55.1613 16.9966 54.3643 16.6665 53.5333 16.6665ZM14.2666 22.4165C15.2556 22.4165 16.2223 22.7097 17.0445 23.2592C17.8667 23.8086 18.5076 24.5895 18.886 25.5031C19.2645 26.4167 19.3635 27.4221 19.1706 28.392C18.9776 29.3619 18.5014 30.2528 17.8022 30.952C17.1029 31.6513 16.212 32.1275 15.2421 32.3204C14.2722 32.5134 13.2669 32.4143 12.3532 32.0359C11.4396 31.6575 10.6587 31.0166 10.1093 30.1944C9.55989 29.3721 9.26665 28.4054 9.26665 27.4165C9.26665 26.0904 9.79343 24.8187 10.7311 23.881C11.6688 22.9433 12.9406 22.4165 14.2666 22.4165ZM50 46.6665H9.99998L22.4333 34.2165C22.6549 33.9967 22.9545 33.8733 23.2666 33.8733C23.5788 33.8733 23.8783 33.9967 24.1 34.2165L30.2333 40.3498L38.6833 31.6665C38.9049 31.4467 39.2045 31.3233 39.5166 31.3233C39.8288 31.3233 40.1283 31.4467 40.35 31.6665L50 41.3165V46.6665Z" fill="#0047FF"/>
</svg>
