<svg width="60" height="70" viewBox="0 0 60 70" fill="none" xmlns="http://www.w3.org/2000/svg">
<path d="M20 20H55C56.3257 19.9987 57.5967 19.4715 58.5341 18.5341C59.4715 17.5967 59.9987 16.3257 60 15V5C59.9987 3.67432 59.4715 2.40332 58.5341 1.46593C57.5967 0.528533 56.3257 0.00132369 55 0H20C18.6743 0.00132369 17.4033 0.528533 16.4659 1.46593C15.5285 2.40332 15.0013 3.67432 15 5V7.5H5V0H0V57.5C0.00132369 58.8257 0.528533 60.0967 1.46593 61.0341C2.40332 61.9715 3.67432 62.4987 5 62.5H15V65C15.0013 66.3257 15.5285 67.5967 16.4659 68.5341C17.4033 69.4715 18.6743 69.9987 20 70H55C56.3257 69.9987 57.5967 69.4715 58.5341 68.5341C59.4715 67.5967 59.9987 66.3257 60 65V55C59.9987 53.6743 59.4715 52.4033 58.5341 51.4659C57.5967 50.5285 56.3257 50.0013 55 50H20C18.6743 50.0013 17.4033 50.5285 16.4659 51.4659C15.5285 52.4033 15.0013 53.6743 15 55V57.5H5V37.5H15V40C15.0013 41.3257 15.5285 42.5967 16.4659 43.5341C17.4033 44.4715 18.6743 44.9987 20 45H55C56.3257 44.9987 57.5967 44.4715 58.5341 43.5341C59.4715 42.5967 59.9987 41.3257 60 40V30C59.9987 28.6743 59.4715 27.4033 58.5341 26.4659C57.5967 25.5285 56.3257 25.0013 55 25H20C18.6743 25.0013 17.4033 25.5285 16.4659 26.4659C15.5285 27.4033 15.0013 28.6743 15 30V32.5H5V12.5H15V15C15.0013 16.3257 15.5285 17.5967 16.4659 18.5341C17.4033 19.4715 18.6743 19.9987 20 20V20ZM20 5H55L55.0025 15H20V5ZM20 55H55L55.0025 65H20V55ZM20 30H55L55.0025 40H20V30Z" fill="#0047FF"/>
</svg>
