<svg width="46" height="45" viewBox="0 0 46 45" fill="none" xmlns="http://www.w3.org/2000/svg">
<path d="M23 9.12054C15.6975 9.12054 9.76116 15.0569 9.75112 22.3594C9.75112 24.8605 10.4542 27.3013 11.7801 29.4007L12.0915 29.9029L10.7556 34.7846L15.7679 33.4688L16.25 33.76C18.279 34.9654 20.6094 35.6083 22.99 35.6083H23C30.2924 35.6083 36.3895 29.6719 36.3895 22.3694C36.3895 18.8337 34.8627 15.5089 32.3616 13.0078C29.8504 10.4967 26.5357 9.12054 23 9.12054ZM30.7846 28.0446C30.4531 28.9788 28.8661 29.8225 28.1027 29.933C26.8371 30.1239 25.8527 30.0234 23.3315 28.9386C19.3438 27.2109 16.7321 23.1931 16.5312 22.9319C16.3304 22.6708 14.904 20.7723 14.904 18.8136C14.904 16.8549 15.9286 15.8906 16.3002 15.4888C16.6618 15.0871 17.0937 14.9866 17.365 14.9866C17.6261 14.9866 17.8973 14.9866 18.1283 14.9967C18.3694 15.0067 18.7009 14.9062 19.0223 15.6797C19.3538 16.4732 20.1473 18.4319 20.2478 18.6328C20.3482 18.8337 20.4185 19.0647 20.2779 19.3259C19.5145 20.8527 18.7009 20.7924 19.1127 21.4955C20.6496 24.1373 22.1864 25.0513 24.5268 26.2266C24.9286 26.4275 25.1596 26.3973 25.3906 26.1261C25.6217 25.865 26.385 24.9609 26.6462 24.5692C26.9074 24.1674 27.1786 24.2377 27.5402 24.3683C27.9018 24.4989 29.8605 25.4632 30.2623 25.6641C30.6641 25.865 30.9252 25.9654 31.0257 26.1261C31.1161 26.317 31.1161 27.1205 30.7846 28.0446ZM40.6786 0H5.32143C2.6596 0 0.5 2.1596 0.5 4.82143V40.1786C0.5 42.8404 2.6596 45 5.32143 45H40.6786C43.3404 45 45.5 42.8404 45.5 40.1786V4.82143C45.5 2.1596 43.3404 0 40.6786 0ZM22.99 38.2902C20.3181 38.2902 17.6964 37.6172 15.3761 36.3516L6.92857 38.5714L9.18862 30.3147C7.79241 27.904 7.05915 25.1618 7.05915 22.3493C7.0692 13.5703 14.2109 6.42857 22.99 6.42857C27.2489 6.42857 31.2467 8.08594 34.26 11.0993C37.2634 14.1127 39.0714 18.1105 39.0714 22.3694C39.0714 31.1484 31.769 38.2902 22.99 38.2902Z" fill="black"/>
</svg>
