<svg xmlns="http://www.w3.org/2000/svg" version="1.0" width="512.000000pt" height="512.000000pt" viewBox="0 0 512.000000 512.000000" preserveAspectRatio="xMidYMid meet">

<g transform="translate(0.000000,512.000000) scale(0.100000,-0.100000)" fill="#000000" stroke="none">
<path d="M3523 4891 c-18 -11 -41 -38 -53 -60 -11 -22 -479 -1035 -1040 -2252 -730 -1582 -1020 -2221 -1020 -2245 0 -107 123 -161 196 -86 40 41 2094 4502 2094 4547 0 26 -9 45 -33 71 -41 45 -96 55 -144 25z"/>
<path d="M1223 3808 c-25 -7 -130 -121 -538 -591 -279 -320 -514 -598 -522 -617 -13 -30 -14 -40 -2 -72 17 -45 1009 -1190 1046 -1207 108 -49 216 65 154 164 -10 17 -222 264 -470 549 -249 286 -451 524 -449 531 2 6 208 246 458 534 250 287 460 532 467 544 24 43 9 113 -31 146 -23 19 -77 29 -113 19z"/>
<path d="M3813 3809 c-48 -14 -83 -62 -83 -114 0 -53 -47 6 519 -645 231 -266 421 -487 421 -490 0 -3 -208 -243 -461 -535 -254 -291 -465 -539 -471 -549 -6 -10 -8 -39 -5 -65 10 -85 102 -130 175 -85 27 16 991 1120 1024 1172 23 35 23 89 -1 127 -24 39 -995 1154 -1018 1170 -27 18 -65 24 -100 14z"/>
</g>
</svg>