<svg width="60" height="90" viewBox="0 0 60 90" fill="none" xmlns="http://www.w3.org/2000/svg">
<g clip-path="url(#clip0_258_386)">
<path d="M15 90C23.28 90 30 83.28 30 75V60H15C6.72 60 0 66.72 0 75C0 83.28 6.72 90 15 90Z" fill="#0ACF83"/>
<path d="M0 45C0 36.72 6.72 30 15 30H30V60H15C6.72 60 0 53.28 0 45Z" fill="#A259FF"/>
<path d="M0 15C0 6.72 6.72 0 15 0H30V30H15C6.72 30 0 23.28 0 15Z" fill="#F24E1E"/>
<path d="M30 0H45C53.28 0 60 6.72 60 15C60 23.28 53.28 30 45 30H30V0Z" fill="#FF7262"/>
<path d="M60 45C60 53.28 53.28 60 45 60C36.72 60 30 53.28 30 45C30 36.72 36.72 30 45 30C53.28 30 60 36.72 60 45Z" fill="#1ABCFE"/>
</g>
<defs>
<clipPath id="clip0_258_386">
<rect width="60" height="90" fill="white"/>
</clipPath>
</defs>
</svg>
