<svg width="60" height="129" viewBox="0 0 60 129" fill="none" xmlns="http://www.w3.org/2000/svg">
<path d="M41.1614 14.3221C35.7685 7.92347 31.1243 1.42448 30.1756 0.0749531C30.153 0.0512689 30.1259 0.0324125 30.0959 0.0195281C30.0658 0.00664375 30.0334 0 30.0007 0C29.968 0 29.9357 0.00664375 29.9056 0.0195281C29.8756 0.0324125 29.8484 0.0512689 29.8259 0.0749531C28.8771 1.42472 24.233 7.92347 18.8398 14.3221C-27.4509 73.3603 26.1307 113.203 26.1307 113.203L26.58 113.503C26.9794 119.651 27.9783 128.5 27.9783 128.5H31.9732C31.9732 128.5 32.9717 119.701 33.3713 113.503L33.8208 113.153C33.8707 113.203 87.4524 73.3605 41.1614 14.3221V14.3221ZM29.9757 112.303C29.9757 112.303 27.5787 110.253 26.9295 109.204V109.103L29.8259 44.8162C29.8259 44.6163 30.1257 44.6163 30.1257 44.8162L33.0218 109.103V109.204C32.3726 110.253 29.9757 112.303 29.9757 112.303V112.303Z" fill="#01EC64"/>
</svg>
