<svg width="60" height="41" viewBox="0 0 60 41" fill="none" xmlns="http://www.w3.org/2000/svg">
<g clip-path="url(#clip0_258_420)">
<path d="M17.8488 26.988L19.6723 32.9045C20.082 34.2478 20.2528 35.1855 20.1844 35.72C21.1816 33.0491 21.8784 30.1384 22.2749 26.988H24.4675C23.5247 32.1168 22.2812 35.8439 20.7377 38.1689C19.5352 39.9605 18.2177 40.8563 16.7831 40.8563C16.4006 40.8563 15.9291 40.7408 15.3695 40.5113V39.275C15.6429 39.3151 15.9636 39.3365 16.3325 39.3365C17.0018 39.3365 17.5412 39.151 17.9516 38.7808C18.443 38.3298 18.6889 37.8228 18.6889 37.2609C18.6889 36.8772 18.4971 36.0898 18.1152 34.8987L15.5746 26.988H17.8487H17.8488ZM3.89332 23.3516L7.23316 33.5417H7.25379L10.6141 23.3516H13.3596C13.9608 28.4052 14.3159 33.029 14.4248 37.2202H12.1102C12.0287 33.3023 11.8031 29.6182 11.4342 26.1671H11.4141L7.8893 37.2202H6.12656L2.62313 26.1671H2.6025C2.34258 29.4814 2.17898 33.1655 2.11078 37.2202H0C0.136406 32.289 0.477773 27.6665 1.0241 23.3516H3.89344H3.89332Z" fill="#00758F"/>
<path d="M41.3086 23.1456C44.9012 23.1456 46.6976 25.4409 46.6976 30.0291C46.6976 32.5224 46.1574 34.4057 45.078 35.678C44.8834 35.9105 44.6684 36.1114 44.442 36.2975L46.9844 37.5545L46.9819 37.5544L46.0792 39.1132L42.7683 37.1814C42.2195 37.3439 41.6157 37.4252 40.9577 37.4252C39.1936 37.4252 37.876 36.9111 37.0048 35.8841C36.0486 34.7481 35.5707 32.9597 35.5707 30.522C35.5707 28.0428 36.11 26.1666 37.1897 24.8927C38.1732 23.7273 39.5464 23.1455 41.3086 23.1455V23.1456ZM30.3071 23.1658C31.5911 23.1658 32.7586 23.5094 33.8103 24.1941L33.2761 25.3844C32.3763 25.0019 31.489 24.8098 30.6141 24.8098C29.9042 24.8098 29.3571 24.9807 28.9758 25.3245C28.5924 25.6653 28.3552 26.1038 28.3552 26.6384C28.3552 27.4599 28.9404 28.1723 30.021 28.7741C30.375 28.9676 30.7278 29.1634 31.0793 29.3614L31.16 29.4067L31.2004 29.4295L31.2811 29.4748L31.3214 29.4975L31.4021 29.543C32.22 30.0041 32.9897 30.4443 32.9897 30.4443C34.0702 31.2113 34.6088 32.029 34.6088 33.3759C34.6088 34.5521 34.1778 35.5176 33.3186 36.2731C32.4588 37.0252 31.3036 37.4023 29.8571 37.4023C28.5041 37.4023 27.1929 36.9682 25.9229 36.1074L26.517 34.9161C27.61 35.4639 28.5991 35.7375 29.4872 35.7375C30.3202 35.7375 30.9722 35.5516 31.4439 35.1843C31.9146 34.8143 32.1967 34.2984 32.1967 33.6441C32.1967 32.8206 31.6239 32.1167 30.5731 31.5262C30.2442 31.3445 29.9162 31.161 29.5893 30.9757L29.5088 30.9302C29.3609 30.8466 29.212 30.762 29.0661 30.6791L28.987 30.6341C28.2774 30.2305 27.6639 29.8779 27.6639 29.8779C26.6134 29.1095 26.0867 28.2851 26.0867 26.9267C26.0867 25.8032 26.4795 24.8951 27.2639 24.2043C28.0503 23.512 29.0648 23.1658 30.3071 23.1658V23.1658ZM50.9198 23.3514V35.5141H55.2836V37.2201H48.7066V23.3514H50.9198ZM57.7084 35.5193V35.8076H57.2287V37.2186H56.8619V35.8076H56.3635V35.5193H57.7086H57.7084ZM58.5944 35.5193L59.055 36.6776L59.4782 35.5193H59.9982V37.2186H59.6525V35.9254L59.1708 37.2186H58.9216L58.4391 35.9254H58.4206V37.2186H58.0935V35.5193H58.5945H58.5944ZM41.0827 24.8512C38.9656 24.8512 37.9064 26.5984 37.9064 30.0906C37.9064 32.091 38.1871 33.5416 38.7474 34.4457C39.2663 35.2824 40.079 35.6999 41.1856 35.6999C43.3027 35.6999 44.3617 33.9391 44.3617 30.419C44.3617 28.4466 44.0811 27.0085 43.5215 26.1039C43.002 25.2691 42.1897 24.8512 41.0828 24.8512H41.0827Z" fill="#F29111"/>
<path d="M35.5332 0.859344C36.2355 -0.866359 38.6912 0.440516 39.6442 1.04333C39.8777 1.19415 40.1456 1.51278 40.4134 1.63055C40.8312 1.64696 41.2486 1.67966 41.6671 1.69712C42.452 1.88157 43.1872 2.03227 43.8057 2.38454C46.6801 4.07731 48.5512 5.80231 50.2733 8.65161C50.6413 9.25513 50.8251 9.90821 51.1257 10.5613C51.5429 11.5348 52.0117 12.5566 52.4959 13.4772C52.7127 13.9136 52.8804 14.3988 53.1814 14.7674C53.299 14.9359 53.6328 14.9856 53.8324 15.0863C54.3841 15.3718 55.0526 15.5886 55.5715 15.9238C56.5405 16.528 57.4774 17.248 58.3291 17.9851C58.6466 18.2697 58.8629 18.6724 59.1654 18.9734V19.1252C58.8969 19.2076 58.6294 19.292 58.3616 19.3596C57.7767 19.5099 57.2586 19.4759 56.6912 19.6262C56.3406 19.7279 55.9052 19.8621 55.5375 19.8962L55.5715 19.9304C55.7878 20.5486 56.9583 21.0513 57.4936 21.4211C58.1437 21.8903 58.7462 22.4593 59.2311 23.1129C59.3986 23.2797 59.566 23.4314 59.7327 23.5977C59.8492 23.7662 59.882 23.9842 59.9999 24.1344V24.1853C59.8693 24.1392 59.7754 24.0513 59.6865 23.9595L59.6334 23.904C59.5803 23.849 59.5268 23.7948 59.4657 23.7502C59.0968 23.4982 58.7305 23.1968 58.3616 22.9625C57.7274 22.5601 56.9918 22.3266 56.3406 21.9226C55.9724 21.6881 55.6214 21.4211 55.2704 21.1527C54.9522 20.9175 54.6019 20.4659 54.4019 20.1307C54.2842 19.9456 54.268 19.7279 54.1335 19.594C54.1575 19.3703 54.3624 19.3038 54.5693 19.2492L54.6169 19.2367C54.6882 19.2182 54.7581 19.1997 54.819 19.1752C55.6878 18.8063 56.7237 18.6724 58.0612 18.7059C58.0108 18.3701 57.1751 17.9516 56.9082 17.7505C56.3727 17.3645 55.8056 16.9617 55.2375 16.6104C54.9364 16.4264 54.4176 16.2921 54.0841 16.1418C53.6328 15.9573 52.6298 15.773 52.3797 15.4217C51.9549 14.8678 51.6498 14.2072 51.3535 13.54L51.2729 13.3579C51.246 13.2972 51.2191 13.2365 51.1921 13.1759C50.8419 12.3723 50.4069 11.5345 50.0559 10.7118C49.8724 10.3104 49.7881 9.95813 49.5872 9.57317C48.3676 7.21091 46.5626 5.23313 44.3741 3.84223C43.6549 3.38966 42.853 2.97083 41.9678 2.68618C41.4661 2.53466 40.864 2.61845 40.3295 2.5022H39.9777C39.6774 2.41759 39.4268 2.0993 39.1925 1.93149C38.6751 1.58016 38.1569 1.34427 37.5382 1.0936C37.3214 0.993055 36.7023 0.758914 36.4862 0.94325C36.3524 0.976883 36.2845 1.02739 36.2516 1.16169C36.1185 1.36208 36.2355 1.66395 36.3184 1.84876C36.5694 2.3843 36.92 2.70259 37.2383 3.15516C37.5214 3.55653 37.8731 4.00911 38.0738 4.44552C38.507 5.3836 38.7087 6.42294 39.11 7.36091C39.2588 7.71364 39.4943 8.11501 39.711 8.43317C39.8946 8.68571 40.2285 8.86829 40.3295 9.18798C40.5308 9.52313 40.0281 10.629 39.9117 10.9802C39.4763 12.3545 39.5607 14.2648 40.0621 15.456L40.0888 15.5188L40.1155 15.5824C40.2985 16.0187 40.4945 16.4885 40.9812 16.6105C41.0147 16.5772 40.9812 16.5947 41.0476 16.5772C41.1654 15.6552 41.1985 14.7673 41.5163 14.0459C41.7 13.5948 42.0667 13.2759 42.318 12.9077C42.4856 13.0081 42.4856 13.3105 42.5855 13.5107C42.803 14.0298 43.0365 14.599 43.3046 15.1197C43.8549 16.1919 44.4742 17.2315 45.1758 18.1695C45.4107 18.5045 45.7441 18.8733 46.0448 19.175C46.1788 19.2919 46.3288 19.3594 46.4294 19.5097H46.4622V19.5604C45.9609 19.3756 45.6431 18.8569 45.2433 18.5541C44.4904 17.9849 43.5889 17.1301 43.07 16.3099C42.853 15.8391 42.6184 15.3878 42.3845 14.9193V14.8854C42.2845 15.0192 42.318 15.1521 42.268 15.3546C42.051 16.1919 42.2181 17.1471 41.4661 17.4483C40.6137 17.801 39.9778 16.8791 39.711 16.4602C38.8583 15.0696 38.6247 12.7238 39.226 10.8301C39.3596 10.4109 39.3778 9.90821 39.611 9.57352C39.5606 9.27095 39.3274 9.18821 39.1925 9.00282C38.9586 8.68595 38.7583 8.31681 38.5752 7.96489C38.2234 7.27747 37.9731 6.4561 37.706 5.71888C37.5886 5.41782 37.5549 5.11559 37.4379 4.83059C37.2382 4.39559 36.8701 3.95919 36.5862 3.57434C36.2017 3.02122 35.0818 1.94919 35.5332 0.859344V0.859344ZM41.0143 4.14235C41.059 4.18712 41.1129 4.22626 41.1687 4.26481L41.2359 4.31098C41.3256 4.37309 41.4124 4.43848 41.4656 4.52755C41.55 4.64544 41.5657 4.7618 41.6667 4.87993C41.6667 5.2827 41.55 5.55048 41.3143 5.71735C41.3143 5.71735 41.2983 5.73493 41.2817 5.75134C41.1481 5.48286 41.0311 5.21579 40.8965 4.94755C40.7308 4.71341 40.4966 4.52766 40.3616 4.26013H40.3291V4.22649C40.5308 4.17669 40.7308 4.14235 41.0143 4.14235Z" fill="#00758F"/>
</g>
<defs>
<clipPath id="clip0_258_420">
<rect width="60" height="40.8984" fill="white"/>
</clipPath>
</defs>
</svg>
