<svg width="60" height="60" viewBox="0 0 60 60" fill="none" xmlns="http://www.w3.org/2000/svg">
<g clip-path="url(#clip0_258_409)">
<path d="M29.7461 0.0170898C14.5511 0.0170898 15.4999 6.60654 15.4999 6.60654L15.5168 13.4334H30.0171V15.483H9.75746C9.75746 15.483 0.0341797 14.3803 0.0341797 29.7119C0.0341797 45.044 8.5209 44.5003 8.5209 44.5003H13.5857V37.3856C13.5857 37.3856 13.3127 28.8989 21.937 28.8989H36.3187C36.3187 28.8989 44.3988 29.0294 44.3988 21.0897V7.96193C44.3988 7.96193 45.626 0.0170898 29.7461 0.0170898ZM21.7507 4.60803C22.0933 4.60772 22.4327 4.67498 22.7493 4.80597C23.0659 4.93695 23.3536 5.12909 23.5959 5.37138C23.8382 5.61367 24.0303 5.90136 24.1613 6.21799C24.2923 6.53462 24.3596 6.87397 24.3593 7.21662C24.3596 7.55927 24.2923 7.89862 24.1613 8.21525C24.0303 8.53188 23.8382 8.81957 23.5959 9.06186C23.3536 9.30416 23.0659 9.49629 22.7493 9.62728C22.4327 9.75826 22.0933 9.82552 21.7507 9.82521C21.408 9.82552 21.0687 9.75826 20.752 9.62728C20.4354 9.49629 20.1477 9.30416 19.9054 9.06186C19.6631 8.81957 19.471 8.53188 19.34 8.21525C19.209 7.89862 19.1418 7.55927 19.1421 7.21662C19.1418 6.87397 19.209 6.53462 19.34 6.21799C19.471 5.90136 19.6631 5.61367 19.9054 5.37138C20.1477 5.12909 20.4354 4.93695 20.752 4.80597C21.0687 4.67498 21.408 4.60772 21.7507 4.60803V4.60803Z" fill="url(#paint0_linear_258_409)"/>
<path d="M30.1778 59.5608C45.3728 59.5608 44.4241 52.9713 44.4241 52.9713L44.4072 46.1447H29.9066V44.0951H50.1662C50.1662 44.0951 59.8895 45.1978 59.8895 29.8657C59.8895 14.5338 51.4028 15.0776 51.4028 15.0776H46.338V22.192C46.338 22.192 46.611 30.6788 37.9867 30.6788H23.605C23.605 30.6788 15.5249 30.5482 15.5249 38.4881V51.6162C15.5249 51.6162 14.298 59.5608 30.1776 59.5608H30.1778ZM38.1733 54.9703C37.8306 54.9706 37.4913 54.9034 37.1746 54.7724C36.858 54.6414 36.5703 54.4493 36.328 54.207C36.0857 53.9647 35.8936 53.677 35.7626 53.3603C35.6316 53.0437 35.5644 52.7044 35.5647 52.3617C35.5643 52.019 35.6316 51.6797 35.7625 51.363C35.8935 51.0464 36.0857 50.7586 36.3279 50.5163C36.5702 50.274 36.8579 50.0819 37.1746 49.9509C37.4912 49.8199 37.8306 49.7526 38.1733 49.7529C38.5159 49.7526 38.8553 49.8198 39.1719 49.9508C39.4885 50.0818 39.7762 50.274 40.0185 50.5162C40.2608 50.7585 40.4529 51.0462 40.5839 51.3629C40.7149 51.6795 40.7822 52.0188 40.7819 52.3615C40.7822 52.7041 40.7149 53.0435 40.5839 53.3601C40.4529 53.6767 40.2608 53.9644 40.0185 54.2067C39.7762 54.449 39.4885 54.6412 39.1719 54.7721C38.8553 54.9031 38.5159 54.9704 38.1733 54.9701V54.9703Z" fill="url(#paint1_linear_258_409)"/>
</g>
<defs>
<linearGradient id="paint0_linear_258_409" x1="5.78624" y1="5.37271" x2="35.4486" y2="34.7392" gradientUnits="userSpaceOnUse">
<stop stop-color="#387EB8"/>
<stop offset="1" stop-color="#366994"/>
</linearGradient>
<linearGradient id="paint1_linear_258_409" x1="23.9932" y1="24.2299" x2="55.8472" y2="54.3425" gradientUnits="userSpaceOnUse">
<stop stop-color="#FFE052"/>
<stop offset="1" stop-color="#FFC331"/>
</linearGradient>
<clipPath id="clip0_258_409">
<rect width="60" height="59.7656" fill="white"/>
</clipPath>
</defs>
</svg>
