<svg width="60" height="60" viewBox="0 0 60 60" fill="none" xmlns="http://www.w3.org/2000/svg">
<path d="M50 32V31.332C50 28.388 47.612 26 44.668 26H40C38.4087 26 36.8826 26.6321 35.7574 27.7574C34.6321 28.8826 34 30.4087 34 32C34 33.5913 34.6321 35.1174 35.7574 36.2426C36.8826 37.3679 38.4087 38 40 38H44C45.5913 38 47.1174 38.6321 48.2426 39.7574C49.3679 40.8826 50 42.4087 50 44C50 45.5913 49.3679 47.1174 48.2426 48.2426C47.1174 49.3679 45.5913 50 44 50H40C38.4087 50 36.8826 49.3679 35.7574 48.2426C34.6321 47.1174 34 45.5913 34 44M32 26H12M22 26V52M2 2H58V58H2V2Z" stroke="#3178C6" stroke-width="3"/>
</svg>
